<mxfile host="app.diagrams.net" modified="2023-02-06T08:40:29.699Z" agent="5.0 (Windows NT 10.0; Win64; x64) AppleWebKit/537.36 (KHTML, like Gecko) Chrome/109.0.0.0 Safari/537.36" etag="bQ65AXy-Svb8sMvRhU_E" version="20.8.13" type="github">
  <diagram id="FsSnOKl8gV7xiEAeE60f" name="第 1 页">
    <mxGraphModel dx="1068" dy="453" grid="1" gridSize="10" guides="1" tooltips="1" connect="1" arrows="1" fold="1" page="1" pageScale="1" pageWidth="827" pageHeight="1169" math="0" shadow="0">
      <root>
        <mxCell id="0" />
        <mxCell id="1" parent="0" />
        <mxCell id="KFZV59xKRPGZIkI-YQ8C-1" value="镜像" style="rounded=0;whiteSpace=wrap;html=1;" vertex="1" parent="1">
          <mxGeometry x="305" y="730" width="100" height="30" as="geometry" />
        </mxCell>
        <mxCell id="KFZV59xKRPGZIkI-YQ8C-3" value="" style="rounded=0;whiteSpace=wrap;html=1;" vertex="1" parent="1">
          <mxGeometry x="170" y="780" width="370" height="60" as="geometry" />
        </mxCell>
        <mxCell id="KFZV59xKRPGZIkI-YQ8C-5" value="文件7" style="shape=document;whiteSpace=wrap;html=1;boundedLbl=1;" vertex="1" parent="1">
          <mxGeometry x="380" y="790" width="70" height="40" as="geometry" />
        </mxCell>
        <mxCell id="KFZV59xKRPGZIkI-YQ8C-6" value="" style="rounded=0;whiteSpace=wrap;html=1;" vertex="1" parent="1">
          <mxGeometry x="170" y="860" width="370" height="60" as="geometry" />
        </mxCell>
        <mxCell id="KFZV59xKRPGZIkI-YQ8C-7" value="" style="rounded=0;whiteSpace=wrap;html=1;" vertex="1" parent="1">
          <mxGeometry x="170" y="940" width="370" height="60" as="geometry" />
        </mxCell>
        <mxCell id="KFZV59xKRPGZIkI-YQ8C-8" value="文件7" style="shape=document;whiteSpace=wrap;html=1;boundedLbl=1;" vertex="1" parent="1">
          <mxGeometry x="379" y="870" width="70" height="40" as="geometry" />
        </mxCell>
        <mxCell id="KFZV59xKRPGZIkI-YQ8C-9" value="文件7" style="shape=document;whiteSpace=wrap;html=1;boundedLbl=1;" vertex="1" parent="1">
          <mxGeometry x="290" y="870" width="70" height="40" as="geometry" />
        </mxCell>
        <mxCell id="KFZV59xKRPGZIkI-YQ8C-10" value="文件7" style="shape=document;whiteSpace=wrap;html=1;boundedLbl=1;" vertex="1" parent="1">
          <mxGeometry x="460" y="870" width="70" height="40" as="geometry" />
        </mxCell>
        <mxCell id="KFZV59xKRPGZIkI-YQ8C-11" value="文件7" style="shape=document;whiteSpace=wrap;html=1;boundedLbl=1;" vertex="1" parent="1">
          <mxGeometry x="460" y="870" width="70" height="40" as="geometry" />
        </mxCell>
        <mxCell id="KFZV59xKRPGZIkI-YQ8C-12" value="文件7" style="shape=document;whiteSpace=wrap;html=1;boundedLbl=1;" vertex="1" parent="1">
          <mxGeometry x="460" y="870" width="70" height="40" as="geometry" />
        </mxCell>
        <mxCell id="KFZV59xKRPGZIkI-YQ8C-13" value="文件7" style="shape=document;whiteSpace=wrap;html=1;boundedLbl=1;" vertex="1" parent="1">
          <mxGeometry x="460" y="870" width="70" height="40" as="geometry" />
        </mxCell>
        <mxCell id="KFZV59xKRPGZIkI-YQ8C-14" value="文件7" style="shape=document;whiteSpace=wrap;html=1;boundedLbl=1;" vertex="1" parent="1">
          <mxGeometry x="290" y="870" width="70" height="40" as="geometry" />
        </mxCell>
        <mxCell id="KFZV59xKRPGZIkI-YQ8C-15" value="文件7" style="shape=document;whiteSpace=wrap;html=1;boundedLbl=1;" vertex="1" parent="1">
          <mxGeometry x="379" y="870" width="70" height="40" as="geometry" />
        </mxCell>
        <mxCell id="KFZV59xKRPGZIkI-YQ8C-16" value="文件7" style="shape=document;whiteSpace=wrap;html=1;boundedLbl=1;" vertex="1" parent="1">
          <mxGeometry x="290" y="870" width="70" height="40" as="geometry" />
        </mxCell>
        <mxCell id="KFZV59xKRPGZIkI-YQ8C-17" value="文件7" style="shape=document;whiteSpace=wrap;html=1;boundedLbl=1;" vertex="1" parent="1">
          <mxGeometry x="379" y="870" width="70" height="40" as="geometry" />
        </mxCell>
        <mxCell id="KFZV59xKRPGZIkI-YQ8C-18" value="文件7" style="shape=document;whiteSpace=wrap;html=1;boundedLbl=1;" vertex="1" parent="1">
          <mxGeometry x="290" y="870" width="70" height="40" as="geometry" />
        </mxCell>
        <mxCell id="KFZV59xKRPGZIkI-YQ8C-19" value="文件7" style="shape=document;whiteSpace=wrap;html=1;boundedLbl=1;" vertex="1" parent="1">
          <mxGeometry x="379" y="870" width="70" height="40" as="geometry" />
        </mxCell>
        <mxCell id="KFZV59xKRPGZIkI-YQ8C-20" value="文件4" style="shape=document;whiteSpace=wrap;html=1;boundedLbl=1;" vertex="1" parent="1">
          <mxGeometry x="290" y="870" width="70" height="40" as="geometry" />
        </mxCell>
        <mxCell id="KFZV59xKRPGZIkI-YQ8C-21" value="文件7" style="shape=document;whiteSpace=wrap;html=1;boundedLbl=1;" vertex="1" parent="1">
          <mxGeometry x="379" y="870" width="70" height="40" as="geometry" />
        </mxCell>
        <mxCell id="KFZV59xKRPGZIkI-YQ8C-22" value="文件6" style="shape=document;whiteSpace=wrap;html=1;boundedLbl=1;" vertex="1" parent="1">
          <mxGeometry x="460" y="870" width="70" height="40" as="geometry" />
        </mxCell>
        <mxCell id="KFZV59xKRPGZIkI-YQ8C-23" value="文件5" style="shape=document;whiteSpace=wrap;html=1;boundedLbl=1;" vertex="1" parent="1">
          <mxGeometry x="379" y="870" width="70" height="40" as="geometry" />
        </mxCell>
        <mxCell id="KFZV59xKRPGZIkI-YQ8C-24" value="文件2" style="shape=document;whiteSpace=wrap;html=1;boundedLbl=1;" vertex="1" parent="1">
          <mxGeometry x="271" y="950" width="70" height="40" as="geometry" />
        </mxCell>
        <mxCell id="KFZV59xKRPGZIkI-YQ8C-25" value="文件1" style="shape=document;whiteSpace=wrap;html=1;boundedLbl=1;size=0.5;" vertex="1" parent="1">
          <mxGeometry x="190" y="950" width="70" height="40" as="geometry" />
        </mxCell>
        <mxCell id="KFZV59xKRPGZIkI-YQ8C-26" value="文件3" style="shape=document;whiteSpace=wrap;html=1;boundedLbl=1;" vertex="1" parent="1">
          <mxGeometry x="350" y="950" width="70" height="40" as="geometry" />
        </mxCell>
        <mxCell id="KFZV59xKRPGZIkI-YQ8C-29" value="" style="endArrow=none;dashed=1;html=1;dashPattern=1 3;strokeWidth=2;rounded=0;" edge="1" parent="1">
          <mxGeometry width="50" height="50" relative="1" as="geometry">
            <mxPoint x="155" y="744.5" as="sourcePoint" />
            <mxPoint x="305" y="744.5" as="targetPoint" />
          </mxGeometry>
        </mxCell>
        <mxCell id="KFZV59xKRPGZIkI-YQ8C-31" value="" style="endArrow=none;dashed=1;html=1;dashPattern=1 3;strokeWidth=2;rounded=0;entryX=1;entryY=0.5;entryDx=0;entryDy=0;" edge="1" parent="1" target="KFZV59xKRPGZIkI-YQ8C-1">
          <mxGeometry width="50" height="50" relative="1" as="geometry">
            <mxPoint x="150" y="745" as="sourcePoint" />
            <mxPoint x="300" y="745" as="targetPoint" />
            <Array as="points">
              <mxPoint x="150" y="1030" />
              <mxPoint x="560" y="1035" />
              <mxPoint x="560" y="745" />
            </Array>
          </mxGeometry>
        </mxCell>
        <mxCell id="KFZV59xKRPGZIkI-YQ8C-34" style="edgeStyle=none;rounded=0;orthogonalLoop=1;jettySize=auto;html=1;" edge="1" parent="1" source="KFZV59xKRPGZIkI-YQ8C-32">
          <mxGeometry relative="1" as="geometry">
            <mxPoint x="140" y="815" as="targetPoint" />
          </mxGeometry>
        </mxCell>
        <mxCell id="KFZV59xKRPGZIkI-YQ8C-32" value="第三层" style="text;html=1;strokeColor=none;fillColor=none;align=center;verticalAlign=middle;whiteSpace=wrap;rounded=0;" vertex="1" parent="1">
          <mxGeometry x="20" y="800" width="60" height="30" as="geometry" />
        </mxCell>
        <mxCell id="KFZV59xKRPGZIkI-YQ8C-37" style="edgeStyle=none;rounded=0;orthogonalLoop=1;jettySize=auto;html=1;exitX=1;exitY=0.5;exitDx=0;exitDy=0;" edge="1" parent="1" source="KFZV59xKRPGZIkI-YQ8C-35">
          <mxGeometry relative="1" as="geometry">
            <mxPoint x="140" y="890" as="targetPoint" />
          </mxGeometry>
        </mxCell>
        <mxCell id="KFZV59xKRPGZIkI-YQ8C-35" value="第二层" style="text;html=1;strokeColor=none;fillColor=none;align=center;verticalAlign=middle;whiteSpace=wrap;rounded=0;" vertex="1" parent="1">
          <mxGeometry x="20" y="875" width="60" height="30" as="geometry" />
        </mxCell>
        <mxCell id="KFZV59xKRPGZIkI-YQ8C-38" style="edgeStyle=none;rounded=0;orthogonalLoop=1;jettySize=auto;html=1;exitX=1;exitY=0.5;exitDx=0;exitDy=0;" edge="1" parent="1" source="KFZV59xKRPGZIkI-YQ8C-36">
          <mxGeometry relative="1" as="geometry">
            <mxPoint x="140" y="970" as="targetPoint" />
          </mxGeometry>
        </mxCell>
        <mxCell id="KFZV59xKRPGZIkI-YQ8C-36" value="第一层" style="text;html=1;strokeColor=none;fillColor=none;align=center;verticalAlign=middle;whiteSpace=wrap;rounded=0;" vertex="1" parent="1">
          <mxGeometry x="20" y="955" width="60" height="30" as="geometry" />
        </mxCell>
      </root>
    </mxGraphModel>
  </diagram>
</mxfile>
